<svg width="18" height="18" viewBox="0 0 18 18" fill="none" xmlns="http://www.w3.org/2000/svg">
<path d="M7.45455 16.7143H15.8182L17.9787 18L18 10.6241C18 9.73083 17.3455 9 16.5455 9H7.45455C6.65455 9 6 9.73083 6 10.6241V15.0903C6 15.9835 6.65455 16.7143 7.45455 16.7143Z" fill="white"/>
<path d="M12.7625 14.3857H11.2325L10.935 15.2857H10L11.5725 11H12.38L13.9525 15.2857H13.0175L12.7625 14.3857ZM11.445 13.7H12.5075L11.9975 12.0714L11.445 13.7Z" fill="#D343F7"/>
<path d="M10.5455 7.77778H2.18182L0 9V1.48148C0 0.666667 0.654545 1.73611e-08 1.45455 0H10.5455C11.3455 0 12 0.666667 12 1.48148V6.2963C12 7.11111 11.3455 7.77778 10.5455 7.77778Z" fill="white"/>
<path d="M7.73996 4.27144C7.73996 4.70001 7.65496 5.04287 7.52746 5.34288C7.39997 5.64288 7.22997 5.90002 6.97497 6.07145L7.69746 6.6286L7.14497 7.14289L6.20998 6.41431C6.12498 6.41431 5.99748 6.45717 5.86998 6.45717C5.61498 6.45717 5.35999 6.41431 5.10499 6.3286C4.89249 6.24288 4.67999 6.07145 4.50999 5.90002C4.34 5.72859 4.2125 5.47145 4.1275 5.2143C4.0425 4.95716 4 4.65716 4 4.3143V4.14287C4 3.80001 4.0425 3.50001 4.1275 3.24286C4.2125 2.98572 4.34 2.72858 4.50999 2.55715C4.67999 2.38572 4.84999 2.21429 5.10499 2.12857C5.31749 2.04286 5.57248 2 5.86998 2C6.12498 2 6.37998 2.04286 6.63497 2.12857C6.84747 2.21429 7.05997 2.38572 7.22997 2.55715C7.39997 2.72858 7.52746 2.98572 7.61246 3.24286C7.69746 3.50001 7.73996 3.80001 7.73996 4.14287V4.27144ZM6.80497 4.05715C6.80497 3.58572 6.71997 3.24286 6.54997 3.02858C6.37998 2.77143 6.16748 2.68572 5.86998 2.68572C5.57248 2.68572 5.31749 2.81429 5.18999 3.02858C5.01999 3.28572 4.93499 3.62858 4.93499 4.05715V4.27144C4.93499 4.48573 4.97749 4.70001 5.01999 4.87144C5.06249 5.04287 5.10499 5.2143 5.18999 5.30002C5.27499 5.42859 5.35999 5.5143 5.48748 5.55716C5.61498 5.60002 5.74248 5.64288 5.86998 5.64288C6.16748 5.64288 6.42248 5.51431 6.54997 5.30002C6.71997 5.04287 6.80497 4.70001 6.80497 4.22858V4.05715Z" fill="#D343F7"/>
</svg>
