<svg width="16" height="16" viewBox="0 0 16 16" fill="none" xmlns="http://www.w3.org/2000/svg">
<path d="M15.9679 15.0352L13.1937 7.04955C12.9988 6.52418 12.5627 6.1994 12.0617 6.1994C11.5607 6.1994 11.1339 6.52418 10.9205 7.06866L8.15558 15.0352C8.02568 15.4078 8.21125 15.8185 8.5731 15.9522C8.93495 16.086 9.33391 15.8949 9.46381 15.5224L10.0391 13.8699H14.0751L14.6503 15.5224C14.7524 15.8185 15.0215 16 15.3091 16C15.3833 16 15.4668 15.9904 15.5411 15.9618C15.9029 15.8281 16.0885 15.4173 15.9586 15.0448L15.9679 15.0352ZM10.5494 12.4275L12.071 8.04298L13.5926 12.4275H10.5494ZM8.18341 4.03104C6.08652 7.44119 4.19377 9.50448 1.89276 10.88C1.78142 10.9469 1.66081 10.9755 1.54947 10.9755C1.30823 10.9755 1.07628 10.8513 0.946381 10.6221C0.751538 10.2782 0.862877 9.83881 1.19689 9.64776C3.14532 8.48239 4.74118 6.81075 6.53188 4.0406H0.695868C0.31546 4.0406 0 3.71582 0 3.32418C0 2.93254 0.31546 2.60776 0.695868 2.60776H4.17521V0.716418C4.17521 0.324776 4.49067 0 4.87108 0C5.25148 0 5.56695 0.324776 5.56695 0.716418V2.60776H9.04629C9.4267 2.60776 9.74216 2.93254 9.74216 3.32418C9.74216 3.71582 9.4267 4.0406 9.04629 4.0406H8.17413L8.18341 4.03104ZM8.22052 10.9755C8.09991 10.9755 7.97929 10.9469 7.86795 10.88C7.26487 10.517 6.68034 10.1158 6.13291 9.69552C5.82673 9.45672 5.76179 9.00776 5.99375 8.69254C6.2257 8.37731 6.66178 8.31045 6.96796 8.54925C7.46899 8.9409 8.0164 9.30388 8.5731 9.63821C8.90711 9.83881 9.01845 10.2782 8.82361 10.6221C8.69372 10.8513 8.46176 10.9755 8.22052 10.9755Z" fill="#FBFBFB"/>
</svg>
