<svg width="16" height="17" viewBox="0 0 16 17" fill="none" xmlns="http://www.w3.org/2000/svg">
<path fill-rule="evenodd" clip-rule="evenodd" d="M9.49793 0.129404C9.18609 3.7998e-08 8.79073 0 7.99999 0C7.20925 0 6.81389 3.7998e-08 6.50205 0.129404C6.08622 0.301946 5.75586 0.632893 5.58362 1.04944C5.50499 1.23959 5.47422 1.46073 5.46218 1.78329C5.44449 2.25733 5.20181 2.69611 4.79172 2.93329C4.38162 3.17047 3.88095 3.16161 3.4623 2.93995C3.17741 2.7891 2.97085 2.70523 2.76715 2.67837C2.32091 2.61951 1.86962 2.74065 1.51255 3.01512C1.24475 3.22097 1.04706 3.56397 0.651703 4.24994C0.256343 4.93592 0.0586675 5.27891 0.0146086 5.61417C-0.044145 6.06118 0.0767811 6.51326 0.350777 6.87098C0.475838 7.03426 0.651593 7.17145 0.924376 7.34315C1.32539 7.5956 1.58342 8.02562 1.5834 8.5C1.58337 8.97439 1.32535 9.40431 0.924376 9.65668C0.651551 9.82847 0.475762 9.96574 0.350693 10.129C0.076697 10.4867 -0.0442207 10.9387 0.0145245 11.3858C0.0585834 11.721 0.256267 12.0641 0.651618 12.75C1.04698 13.436 1.24466 13.779 1.51247 13.9848C1.86954 14.2593 2.32083 14.3804 2.76706 14.3216C2.97076 14.2947 3.1773 14.2108 3.46217 14.06C3.88085 13.8383 4.38155 13.8295 4.79167 14.0667C5.20179 14.3039 5.44448 14.7427 5.46218 15.2168C5.47422 15.5393 5.50499 15.7604 5.58362 15.9506C5.75586 16.3671 6.08622 16.6981 6.50205 16.8706C6.81389 17 7.20925 17 7.99999 17C8.79073 17 9.18609 17 9.49793 16.8706C9.91376 16.6981 10.2441 16.3671 10.4163 15.9506C10.495 15.7604 10.5258 15.5393 10.5378 15.2167C10.5555 14.7427 10.7981 14.3039 11.2082 14.0667C11.6183 13.8294 12.1191 13.8383 12.5378 14.06C12.8226 14.2108 13.0291 14.2946 13.2328 14.3215C13.6791 14.3804 14.1303 14.2593 14.4874 13.9848C14.7553 13.7789 14.9529 13.436 15.3483 12.7499C15.7436 12.064 15.9413 11.721 15.9854 11.3858C16.0441 10.9387 15.9232 10.4866 15.6492 10.1289C15.5241 9.96566 15.3484 9.82838 15.0755 9.65668C14.6746 9.40431 14.4166 8.9743 14.4166 8.49992C14.4166 8.02553 14.6746 7.59569 15.0755 7.34332C15.3484 7.17154 15.5242 7.03435 15.6493 6.87098C15.9233 6.51332 16.0442 6.06124 15.9855 5.61422C15.9414 5.27897 15.7437 4.93598 15.3484 4.25C14.953 3.56402 14.7554 3.22103 14.4875 3.01518C14.1304 2.74071 13.6791 2.61957 13.2329 2.67843C13.0292 2.70529 12.8226 2.78916 12.5378 2.93998C12.1191 3.16165 11.6184 3.17052 11.2083 2.93332C10.7982 2.69612 10.5555 2.25731 10.5378 1.78325C10.5257 1.46071 10.495 1.23958 10.4163 1.04944C10.2441 0.632893 9.91376 0.301946 9.49793 0.129404ZM7.99999 11.05C9.40588 11.05 10.5455 9.90837 10.5455 8.5C10.5455 7.09164 9.40588 5.95 7.99999 5.95C6.5941 5.95 5.45444 7.09164 5.45444 8.5C5.45444 9.90837 6.5941 11.05 7.99999 11.05Z" fill="white"/>
</svg>
