<svg width="16" height="16" viewBox="0 0 16 16" fill="none" xmlns="http://www.w3.org/2000/svg">
<path d="M5.31387 11.6389H2.55501C1.53256 11.6389 1.02133 11.6389 0.913768 11.5629C0.792928 11.4775 0.763402 11.4271 0.750313 11.2839C0.73867 11.1564 1.052 10.6656 1.67866 9.68402C2.32569 8.6705 2.87509 7.19482 2.87509 5.10556C2.87509 3.95039 3.38869 2.84254 4.30291 2.02571C5.21713 1.20889 6.45708 0.75 7.74998 0.75C9.04289 0.75 10.2828 1.20889 11.197 2.02571C12.1113 2.84254 12.6249 3.95039 12.6249 5.10556C12.6249 7.19482 13.1743 8.6705 13.8213 9.68402C14.4479 10.6656 14.7613 11.1564 14.7497 11.2839C14.7366 11.4271 14.707 11.4775 14.5862 11.5629C14.4786 11.6389 13.9674 11.6389 12.945 11.6389H10.1874M5.31387 11.6389L5.31254 12.4167C5.31254 13.7054 6.40386 14.75 7.74998 14.75C9.09619 14.75 10.1874 13.7054 10.1874 12.4167V11.6389M5.31387 11.6389H10.1874" stroke="white" stroke-width="1.5" stroke-linecap="round" stroke-linejoin="round"/>
</svg>
