<svg width="12" height="20" viewBox="0 0 12 20" fill="none" xmlns="http://www.w3.org/2000/svg">
<path d="M11.4507 3.31757C10.9383 2.34375 10.1362 1.53235 9.14255 0.943785C8.14932 0.357826 6.95037 2.80099e-05 5.64913 2.80099e-05C4.04516 -0.00393932 2.71253 0.413952 1.70673 0.992676C0.696931 1.56934 0.261536 2.24075 0.261536 2.24075C0.0918359 2.38801 -0.00388531 2.60224 0.000120912 2.82636C0.00471056 3.05079 0.108055 3.26144 0.283007 3.40139L1.68063 4.5208C1.9655 4.74888 2.3732 4.74032 2.64816 4.50065C2.64816 4.50065 2.81984 4.19034 3.35788 3.88299C3.89891 3.57766 4.60039 3.33173 5.64913 3.32842C6.56383 3.32644 7.36138 3.66778 7.90568 4.13421C8.17608 4.36529 8.37806 4.62406 8.50187 4.86078C8.62664 5.09944 8.67219 5.30808 8.67157 5.46654C8.66892 6.00197 8.56492 6.35218 8.41474 6.65059C8.3002 6.87342 8.15068 7.07116 7.95819 7.26296C7.67099 7.55016 7.28149 7.81554 6.84446 8.0595C6.40708 8.3064 5.93567 8.52359 5.45932 8.78606C4.91564 9.08711 4.3403 9.51955 3.91513 10.1686C3.70319 10.4894 3.53746 10.8565 3.43221 11.2437C3.32556 11.6312 3.2774 12.0376 3.2774 12.4522C3.2774 12.8945 3.2774 13.2576 3.2774 13.2576C3.2774 13.6745 3.6154 14.0126 4.03236 14.0126H5.85119C6.26811 14.0126 6.60615 13.6745 6.60615 13.2576C6.60615 13.2576 6.60615 12.8945 6.60615 12.4522C6.60615 12.2924 6.62431 12.1894 6.64181 12.1241C6.67188 12.0264 6.68872 12.0019 6.73788 11.9425C6.78806 11.886 6.88938 11.7996 7.0762 11.6962C7.3492 11.5428 7.7879 11.3355 8.28468 11.0671C9.02839 10.6604 9.93256 10.1085 10.6951 9.19769C11.0744 8.74316 11.4098 8.19582 11.6411 7.56533C11.8746 6.93484 12.0006 6.22612 12 5.46654C11.9993 4.69703 11.7907 3.96619 11.4507 3.31757Z" fill="white"/>
<path d="M4.94286 15.8086C3.80898 15.8086 2.88965 16.7282 2.88965 17.8618C2.88965 18.9951 3.80902 19.9144 4.94286 19.9144C6.07611 19.9144 6.99509 18.9951 6.99509 17.8618C6.99509 16.7282 6.07611 15.8086 4.94286 15.8086Z" fill="white"/>
</svg>
