<svg width="33" height="28" viewBox="0 0 33 28" fill="none" xmlns="http://www.w3.org/2000/svg">
<path d="M8.16667 9.3125H24.8333M8.16667 15.5625H24.8333M31.5 26.5L25.9595 23.9028C25.5395 23.7059 25.3295 23.6075 25.1093 23.5381C24.914 23.4766 24.7128 23.432 24.5087 23.4052C24.2787 23.375 24.0438 23.375 23.5743 23.375H6.83333C4.96648 23.375 4.03307 23.375 3.32003 23.0344C2.69282 22.7348 2.18288 22.2567 1.86332 21.6688C1.5 21.0003 1.5 20.1252 1.5 18.375V6.5C1.5 4.74983 1.5 3.87475 1.86332 3.20628C2.18288 2.61827 2.69282 2.1402 3.32003 1.84061C4.03307 1.5 4.9665 1.5 6.83333 1.5H26.1667C28.0335 1.5 28.967 1.5 29.68 1.84061C30.3072 2.1402 30.8172 2.61827 31.1367 3.20628C31.5 3.87475 31.5 4.74984 31.5 6.5V26.5Z" stroke="#AFB5B3" stroke-width="3" stroke-linecap="round" stroke-linejoin="round"/>
</svg>
