<svg width="28" height="25" viewBox="0 0 28 25" fill="none" xmlns="http://www.w3.org/2000/svg">
<path fill-rule="evenodd" clip-rule="evenodd" d="M4.2 6.94444C4.2 7.3128 4.0525 7.66607 3.78995 7.92654C3.5274 8.187 3.1713 8.33333 2.8 8.33333C2.4287 8.33333 2.0726 8.187 1.81005 7.92654C1.5475 7.66607 1.4 7.3128 1.4 6.94444V4.05972C1.4 3.00417 1.5148 2.41389 1.8466 1.8C2.1588 1.21806 2.6278 0.752778 3.2144 0.443056C3.8332 0.113889 4.4268 0 5.4922 0H8.4C8.7713 0 9.1274 0.146329 9.38995 0.406796C9.6525 0.667263 9.8 1.02053 9.8 1.38889C9.8 1.75725 9.6525 2.11051 9.38995 2.37098C9.1274 2.63145 8.7713 2.77778 8.4 2.77778H5.4922C4.8496 2.77778 4.6942 2.80833 4.5346 2.89167C4.44023 2.93987 4.36339 3.0161 4.3148 3.10972C4.2308 3.26667 4.2 3.42222 4.2 4.05972V6.94444ZM8.4 22.2222C8.7713 22.2222 9.1274 22.3685 9.38995 22.629C9.6525 22.8895 9.8 23.2428 9.8 23.6111C9.8 23.9795 9.6525 24.3327 9.38995 24.5932C9.1274 24.8537 8.7713 25 8.4 25H5.4922C4.4282 25 3.8332 24.8861 3.2144 24.5569C2.63238 24.2499 2.15608 23.7774 1.8466 23.2C1.5148 22.5861 1.4 21.9972 1.4 20.9403V18.0556C1.4 17.6872 1.5475 17.3339 1.81005 17.0735C2.0726 16.813 2.4287 16.6667 2.8 16.6667C3.1713 16.6667 3.5274 16.813 3.78995 17.0735C4.0525 17.3339 4.2 17.6872 4.2 18.0556V20.9403C4.2 21.5778 4.2308 21.7319 4.3148 21.8903C4.368 21.9875 4.4366 22.0569 4.5346 22.1083C4.6928 22.1917 4.8496 22.2222 5.4922 22.2222H8.4ZM18.2 1.38889C18.2 1.75725 18.3475 2.11051 18.6101 2.37098C18.8726 2.63145 19.2287 2.77778 19.6 2.77778H22.5078C23.1504 2.77778 23.3058 2.80833 23.4654 2.89167C23.5634 2.94444 23.6334 3.0125 23.6852 3.10972C23.7692 3.26667 23.8 3.42222 23.8 4.05972V6.94444C23.8 7.3128 23.9475 7.66607 24.21 7.92654C24.4726 8.187 24.8287 8.33333 25.2 8.33333C25.5713 8.33333 25.9274 8.187 26.19 7.92654C26.4525 7.66607 26.6 7.3128 26.6 6.94444V4.05972C26.6 3.00417 26.4852 2.41389 26.1534 1.8C25.8439 1.2226 25.3676 0.750077 24.7856 0.443056C24.1668 0.113889 23.5732 0 22.5078 0H19.6C19.2287 0 18.8726 0.146329 18.6101 0.406796C18.3475 0.667263 18.2 1.02053 18.2 1.38889ZM23.8 18.0556C23.8 17.6872 23.9475 17.3339 24.21 17.0735C24.4726 16.813 24.8287 16.6667 25.2 16.6667C25.5713 16.6667 25.9274 16.813 26.19 17.0735C26.4525 17.3339 26.6 17.6872 26.6 18.0556V20.9403C26.6 21.9958 26.4852 22.5861 26.1534 23.2C25.8439 23.7774 25.3676 24.2499 24.7856 24.5569C24.1668 24.8861 23.5732 25 22.5078 25H19.6C19.2287 25 18.8726 24.8537 18.6101 24.5932C18.3475 24.3327 18.2 23.9795 18.2 23.6111C18.2 23.2428 18.3475 22.8895 18.6101 22.629C18.8726 22.3685 19.2287 22.2222 19.6 22.2222H22.5078C23.1504 22.2222 23.3058 22.1917 23.4654 22.1083C23.5598 22.0602 23.6367 21.984 23.6852 21.8903C23.7692 21.7333 23.8 21.5778 23.8 20.9403V18.0556ZM1.4 11.1111C1.0287 11.1111 0.672601 11.2574 0.41005 11.5179C0.1475 11.7784 0 12.1316 0 12.5C0 12.8684 0.1475 13.2216 0.41005 13.4821C0.672601 13.7426 1.0287 13.8889 1.4 13.8889H26.6C26.9713 13.8889 27.3274 13.7426 27.59 13.4821C27.8525 13.2216 28 12.8684 28 12.5C28 12.1316 27.8525 11.7784 27.59 11.5179C27.3274 11.2574 26.9713 11.1111 26.6 11.1111H1.4Z" fill="white"/>
</svg>
