<svg width="30" height="28" viewBox="0 0 30 28" fill="none" xmlns="http://www.w3.org/2000/svg">
<path fill-rule="evenodd" clip-rule="evenodd" d="M4.5 7.77778C4.5 8.19034 4.34196 8.586 4.06066 8.87772C3.77936 9.16945 3.39782 9.33333 3 9.33333C2.60218 9.33333 2.22064 9.16945 1.93934 8.87772C1.65804 8.586 1.5 8.19034 1.5 7.77778V4.54689C1.5 3.36467 1.623 2.70356 1.9785 2.016C2.313 1.36422 2.8155 0.843111 3.444 0.496222C4.107 0.127556 4.743 0 5.8845 0H9C9.39782 0 9.77936 0.163888 10.0607 0.455612C10.342 0.747335 10.5 1.143 10.5 1.55556C10.5 1.96811 10.342 2.36378 10.0607 2.6555C9.77936 2.94722 9.39782 3.11111 9 3.11111H5.8845C5.196 3.11111 5.0295 3.14533 4.8585 3.23867C4.75739 3.29265 4.67506 3.37803 4.623 3.48289C4.533 3.65867 4.5 3.83289 4.5 4.54689V7.77778ZM9 24.8889C9.39782 24.8889 9.77936 25.0528 10.0607 25.3445C10.342 25.6362 10.5 26.0319 10.5 26.4444C10.5 26.857 10.342 27.2527 10.0607 27.5444C9.77936 27.8361 9.39782 28 9 28H5.8845C4.7445 28 4.107 27.8724 3.444 27.5038C2.8204 27.1599 2.31008 26.6307 1.9785 25.984C1.623 25.2964 1.5 24.6369 1.5 23.4531V20.2222C1.5 19.8097 1.65804 19.414 1.93934 19.1223C2.22064 18.8306 2.60218 18.6667 3 18.6667C3.39782 18.6667 3.77936 18.8306 4.06066 19.1223C4.34196 19.414 4.5 19.8097 4.5 20.2222V23.4531C4.5 24.1671 4.533 24.3398 4.623 24.5171C4.68 24.626 4.7535 24.7038 4.8585 24.7613C5.028 24.8547 5.196 24.8889 5.8845 24.8889H9ZM19.5 1.55556C19.5 1.96811 19.658 2.36378 19.9393 2.6555C20.2206 2.94722 20.6022 3.11111 21 3.11111H24.1155C24.804 3.11111 24.9705 3.14533 25.1415 3.23867C25.2465 3.29778 25.3215 3.374 25.377 3.48289C25.467 3.65867 25.5 3.83289 25.5 4.54689V7.77778C25.5 8.19034 25.658 8.586 25.9393 8.87772C26.2206 9.16945 26.6022 9.33333 27 9.33333C27.3978 9.33333 27.7794 9.16945 28.0607 8.87772C28.342 8.586 28.5 8.19034 28.5 7.77778V4.54689C28.5 3.36467 28.377 2.70356 28.0215 2.016C27.6899 1.36931 27.1796 0.840086 26.556 0.496222C25.893 0.127556 25.257 0 24.1155 0H21C20.6022 0 20.2206 0.163888 19.9393 0.455612C19.658 0.747335 19.5 1.143 19.5 1.55556ZM25.5 20.2222C25.5 19.8097 25.658 19.414 25.9393 19.1223C26.2206 18.8306 26.6022 18.6667 27 18.6667C27.3978 18.6667 27.7794 18.8306 28.0607 19.1223C28.342 19.414 28.5 19.8097 28.5 20.2222V23.4531C28.5 24.6353 28.377 25.2964 28.0215 25.984C27.6898 26.6306 27.1795 27.1598 26.556 27.5038C25.893 27.8724 25.257 28 24.1155 28H21C20.6022 28 20.2206 27.8361 19.9393 27.5444C19.658 27.2527 19.5 26.857 19.5 26.4444C19.5 26.0319 19.658 25.6362 19.9393 25.3445C20.2206 25.0528 20.6022 24.8889 21 24.8889H24.1155C24.804 24.8889 24.9705 24.8547 25.1415 24.7613C25.2427 24.7074 25.325 24.622 25.377 24.5171C25.467 24.3413 25.5 24.1671 25.5 23.4531V20.2222ZM1.5 12.4444C1.10218 12.4444 0.720644 12.6083 0.43934 12.9001C0.158035 13.1918 0 13.5874 0 14C0 14.4126 0.158035 14.8082 0.43934 15.0999C0.720644 15.3917 1.10218 15.5556 1.5 15.5556H28.5C28.8978 15.5556 29.2794 15.3917 29.5607 15.0999C29.842 14.8082 30 14.4126 30 14C30 13.5874 29.842 13.1918 29.5607 12.9001C29.2794 12.6083 28.8978 12.4444 28.5 12.4444H1.5Z" fill="#AFB5B3"/>
</svg>
